<svg width="32" height="32" viewBox="0 0 32 32" fill="none" xmlns="http://www.w3.org/2000/svg">
<path d="M29.125 1H2.875C1.83859 1 1 1.83859 1 2.875V29.125C1 30.1614 1.83859 31 2.875 31H29.125C30.1614 31 31 30.1614 31 29.125V2.875C31 1.83859 30.1614 1 29.125 1ZM1.9375 2.875C1.9375 2.3575 2.3575 1.9375 2.875 1.9375H29.125C29.6425 1.9375 30.0625 2.3575 30.0625 2.875V20.8459L24.8233 15.6067C24.0906 14.8741 22.9047 14.8741 22.172 15.6067L14.1231 23.6556L10.7711 20.3041C10.0384 19.5714 8.8525 19.5714 8.11984 20.3041L1.9375 26.4859V2.875Z" fill="black" fill-opacity="0.5" stroke="#70786F" stroke-width="1.5"/>
</svg>
