<svg width="34" height="34" viewBox="0 0 34 34" fill="none" xmlns="http://www.w3.org/2000/svg">
<path d="M32 15.5V12.5C32 5 29 2 21.5 2H12.5C5 2 2 5 2 12.5V21.5C2 29 5 32 12.5 32H14" stroke="#70786F" stroke-width="3" stroke-linecap="round" stroke-linejoin="round"/>
<path d="M2.045 11.75H32" stroke="#70786F" stroke-width="3" stroke-linecap="round" stroke-linejoin="round"/>
<path d="M2.045 22.25H17" stroke="#70786F" stroke-width="3" stroke-linecap="round" stroke-linejoin="round"/>
<path d="M11.765 31.985V2.01501" stroke="#70786F" stroke-width="3" stroke-linecap="round" stroke-linejoin="round"/>
<path d="M22.265 16.985V2.01501" stroke="#70786F" stroke-width="3" stroke-linecap="round" stroke-linejoin="round"/>
<path d="M27.2 28.55L24.35 31.4C23.57 32.18 22.28 32.18 21.485 31.4L19.115 29.015C18.335 28.235 18.335 26.945 19.115 26.15L21.965 23.315L27.2 28.55Z" stroke="#70786F" stroke-width="3" stroke-linecap="round" stroke-linejoin="round"/>
<path d="M31.415 24.35L27.2 28.5648L21.95 23.3148L26.165 19.085C26.945 18.305 28.25 18.305 29.03 19.085L31.4 21.47C32.195 22.265 32.195 23.57 31.415 24.35Z" stroke="#70786F" stroke-width="3" stroke-linecap="round" stroke-linejoin="round"/>
</svg>
