<svg width="160" height="74" viewBox="0 0 160 74" fill="none" xmlns="http://www.w3.org/2000/svg">
<path d="M40 20C40 23.9556 38.827 27.8224 36.6294 31.1114C34.4318 34.4004 31.3082 36.9638 27.6537 38.4776C23.9991 39.9913 19.9778 40.3874 16.0982 39.6157C12.2186 38.844 8.65491 36.9392 5.85786 34.1421C3.06081 31.3451 1.156 27.7814 0.384294 23.9018C-0.38741 20.0222 0.00865672 16.0009 1.52241 12.3463C3.03616 8.69181 5.59961 5.56824 8.8886 3.37061C12.1776 1.17298 16.0444 -4.71704e-08 20 0V20H40Z" fill="#FEDDD5"/>
<path d="M100 20C100 16.0444 98.827 12.1776 96.6294 8.8886C94.4318 5.59961 91.3082 3.03616 87.6537 1.52241C83.9991 0.00865667 79.9778 -0.38741 76.0982 0.384294C72.2186 1.156 68.6549 3.06081 65.8579 5.85786C63.0608 8.65491 61.156 12.2186 60.3843 16.0982C59.6126 19.9778 60.0087 23.9991 61.5224 27.6537C63.0362 31.3082 65.5996 34.4318 68.8886 36.6294C72.1776 38.827 76.0444 40 80 40V20H100Z" fill="#D7EDD5"/>
<path d="M120 20C120 23.9556 121.173 27.8224 123.371 31.1114C125.568 34.4004 128.692 36.9638 132.346 38.4776C136.001 39.9913 140.022 40.3874 143.902 39.6157C147.781 38.844 151.345 36.9392 154.142 34.1421C156.939 31.3451 158.844 27.7814 159.616 23.9018C160.387 20.0222 159.991 16.0009 158.478 12.3463C156.964 8.69181 154.4 5.56824 151.111 3.37061C147.822 1.17298 143.956 -1.04039e-07 140 -8.74227e-07L140 20L120 20Z" fill="#A5C8D1"/>
<line x1="160" y1="62" x2="-1.21299e-06" y2="62" stroke="#D7EDD5" stroke-width="24"/>
</svg>
