<svg width="16" height="18" viewBox="0 0 16 18" fill="none" xmlns="http://www.w3.org/2000/svg">
<path d="M8.66964 0C9.69831 0 10.5453 0.777754 10.6547 1.7773L12.2222 1.77778C13.2808 1.77778 14.1472 2.60014 14.2176 3.64085L14.2222 3.77778V5.10881C14.2222 5.477 13.9237 5.77548 13.5556 5.77548C13.218 5.77548 12.9391 5.52468 12.895 5.19928L12.8889 5.10881V3.77778C12.8889 3.44027 12.6381 3.16134 12.3127 3.1172L12.2222 3.11111L10.3274 3.11097C9.96872 3.64364 9.3601 3.99405 8.66964 3.99405H5.55258C4.86212 3.99405 4.2535 3.64364 3.89485 3.11097L2 3.11111C1.66249 3.11111 1.38356 3.36191 1.33942 3.68732L1.33333 3.77778V15.7819C1.33333 16.1194 1.58414 16.3983 1.90954 16.4424L2 16.4485H3.33756C3.70575 16.4485 4.00423 16.747 4.00423 17.1152C4.00423 17.4527 3.75342 17.7316 3.42802 17.7758L3.33756 17.7819H2C0.941454 17.7819 0.0749823 16.9595 0.00461409 15.9188L0 15.7819V3.77778C0 2.71923 0.822366 1.85276 1.86307 1.78239L2 1.77778L3.56751 1.7773C3.6769 0.777754 4.52391 0 5.55258 0H8.66964ZM13.1111 7.11111C14.7066 7.11111 16 8.40451 16 10V14.8889C16 16.4844 14.7066 17.7778 13.1111 17.7778H8.22222C6.62673 17.7778 5.33333 16.4844 5.33333 14.8889V10C5.33333 8.40451 6.62673 7.11111 8.22222 7.11111H13.1111ZM13.6325 16.3549L11.1381 13.8587C10.9014 13.622 10.531 13.6005 10.27 13.7941L10.1952 13.8586L7.6999 16.3546C7.86316 16.4128 8.03899 16.4444 8.22222 16.4444H13.1111C13.294 16.4444 13.4695 16.4129 13.6325 16.3549ZM13.1111 8.44444H8.22222C7.36311 8.44444 6.66667 9.14089 6.66667 10V14.8889C6.66667 15.0721 6.69835 15.248 6.75653 15.4112L9.25247 12.9158C9.99636 12.172 11.1803 12.1366 11.9661 12.8096L12.0809 12.9159L14.5768 15.4112C14.635 15.248 14.6667 15.0721 14.6667 14.8889V10C14.6667 9.14089 13.9702 8.44444 13.1111 8.44444ZM12.4444 9.77982C12.9354 9.77982 13.3333 10.1778 13.3333 10.6687C13.3333 11.1596 12.9354 11.5576 12.4444 11.5576C11.9535 11.5576 11.5556 11.1596 11.5556 10.6687C11.5556 10.1778 11.9535 9.77982 12.4444 9.77982ZM8.66964 1.33333H5.55258C5.18603 1.33333 4.88889 1.63048 4.88889 1.99702C4.88889 2.36357 5.18603 2.66071 5.55258 2.66071H8.66964C9.03619 2.66071 9.33333 2.36357 9.33333 1.99702C9.33333 1.63048 9.03619 1.33333 8.66964 1.33333Z" fill="#70786F"/>
</svg>
