<svg width="30" height="30" viewBox="0 0 30 30" fill="none" xmlns="http://www.w3.org/2000/svg">
<path fill-rule="evenodd" clip-rule="evenodd" d="M7.5 0C8.32842 0 9 0.67158 9 1.5V6H19.5C21.9853 6 24 8.01472 24 10.5V21H28.5C29.3284 21 30 21.6716 30 22.5C30 23.3284 29.3284 24 28.5 24H24V28.5C24 29.3284 23.3284 30 22.5 30C21.6716 30 21 29.3284 21 28.5V24H10.5C8.01472 24 6 21.9853 6 19.5V9H1.5C0.67158 9 0 8.32842 0 7.5C0 6.67158 0.67158 6 1.5 6H6V1.5C6 0.67158 6.67158 0 7.5 0ZM9 9V19.5C9 20.3284 9.67158 21 10.5 21H21V10.5C21 9.67158 20.3284 9 19.5 9H9Z" fill="black" fill-opacity="0.5"/>
</svg>
