<svg width="17" height="17" viewBox="0 0 17 17" fill="none" xmlns="http://www.w3.org/2000/svg">
<path d="M16.2273 3.09091H12.3636V0.772727C12.3636 0.567787 12.2822 0.371241 12.1373 0.226327C11.9924 0.0814121 11.7958 0 11.5909 0H5.40909C5.20415 0 5.0076 0.0814121 4.86269 0.226327C4.71778 0.371241 4.63636 0.567787 4.63636 0.772727V3.09091H0.772727C0.567787 3.09091 0.371241 3.17232 0.226327 3.31724C0.0814121 3.46215 0 3.6587 0 3.86364C0 4.06858 0.0814121 4.26512 0.226327 4.41004C0.371241 4.55495 0.567787 4.63636 0.772727 4.63636H1.63586L3.09709 16.3231C3.12044 16.5099 3.21122 16.6818 3.35237 16.8065C3.49352 16.9311 3.67533 16.9999 3.86364 17H13.1364C13.3247 16.9999 13.5065 16.9311 13.6476 16.8065C13.7888 16.6818 13.8796 16.5099 13.9029 16.3231L15.3641 4.63636H16.2273C16.4322 4.63636 16.6288 4.55495 16.7737 4.41004C16.9186 4.26512 17 4.06858 17 3.86364C17 3.6587 16.9186 3.46215 16.7737 3.31724C16.6288 3.17232 16.4322 3.09091 16.2273 3.09091ZM6.18182 1.54545H10.8182V3.09091H6.18182V1.54545ZM12.454 15.4545H4.54595L3.19368 4.63636H13.8063L12.454 15.4545Z" fill="black" fill-opacity="0.7"/>
</svg>
