<svg width="89" height="84" viewBox="0 0 89 84" fill="none" xmlns="http://www.w3.org/2000/svg">
<path d="M20.8889 30.2353V25.5294C20.8889 12.5345 31.46 2 44.5 2C57.5399 2 68.1111 12.5345 68.1111 25.5294V30.2353C78.543 30.2353 87 38.6631 87 49.0588C87 56.0264 83.2014 62.2748 77.5556 65.5294M20.8889 30.2353C10.4568 30.2353 2 38.6631 2 49.0588C2 56.0264 5.79856 62.2748 11.4444 65.5294M20.8889 30.2353C22.9329 30.2353 24.9011 30.5591 26.7447 31.1572M44.5 39.6471V82M44.5 39.6471L58.6667 53.7647M44.5 39.6471L30.3333 53.7647" stroke="#96D090" stroke-width="3.75" stroke-linecap="round" stroke-linejoin="round"/>
</svg>
