<svg width="30" height="30" viewBox="0 0 30 30" fill="none" xmlns="http://www.w3.org/2000/svg">
<path d="M9.375 3.33651C8.87772 3.33651 8.40081 3.51206 8.04918 3.82453C7.69754 4.13701 7.5 4.56081 7.5 5.00272C7.5 5.44463 7.69754 5.86844 8.04918 6.18091C8.40081 6.49339 8.87772 6.66893 9.375 6.66893C9.87228 6.66893 10.3492 6.49339 10.7008 6.18091C11.0525 5.86844 11.25 5.44463 11.25 5.00272C11.25 4.56081 11.0525 4.13701 10.7008 3.82453C10.3492 3.51206 9.87228 3.33651 9.375 3.33651ZM4.06875 3.33651C4.45613 2.36089 5.17451 1.51606 6.12487 0.918483C7.07524 0.320906 8.21079 0 9.375 0C10.5392 0 11.6748 0.320906 12.6251 0.918483C13.5755 1.51606 14.2939 2.36089 14.6812 3.33651H28.125C28.6223 3.33651 29.0992 3.51206 29.4508 3.82453C29.8025 4.13701 30 4.56081 30 5.00272C30 5.44463 29.8025 5.86844 29.4508 6.18091C29.0992 6.49339 28.6223 6.66893 28.125 6.66893H14.6812C14.2939 7.64456 13.5755 8.48938 12.6251 9.08696C11.6748 9.68454 10.5392 10.0054 9.375 10.0054C8.21079 10.0054 7.07524 9.68454 6.12487 9.08696C5.17451 8.48938 4.45613 7.64456 4.06875 6.66893H1.875C1.37772 6.66893 0.900806 6.49339 0.549175 6.18091C0.197544 5.86844 0 5.44463 0 5.00272C0 4.56081 0.197544 4.13701 0.549175 3.82453C0.900806 3.51206 1.37772 3.33651 1.875 3.33651H4.06875ZM20.625 13.3338C20.1277 13.3338 19.6508 13.5093 19.2992 13.8218C18.9475 14.1343 18.75 14.5581 18.75 15C18.75 15.4419 18.9475 15.8657 19.2992 16.1782C19.6508 16.4907 20.1277 16.6662 20.625 16.6662C21.1223 16.6662 21.5992 16.4907 21.9508 16.1782C22.3025 15.8657 22.5 15.4419 22.5 15C22.5 14.5581 22.3025 14.1343 21.9508 13.8218C21.5992 13.5093 21.1223 13.3338 20.625 13.3338ZM15.3188 13.3338C15.7061 12.3582 16.4245 11.5133 17.3749 10.9158C18.3252 10.3182 19.4608 9.99728 20.625 9.99728C21.7892 9.99728 22.9248 10.3182 23.8751 10.9158C24.8255 11.5133 25.5439 12.3582 25.9312 13.3338H28.125C28.6223 13.3338 29.0992 13.5093 29.4508 13.8218C29.8025 14.1343 30 14.5581 30 15C30 15.4419 29.8025 15.8657 29.4508 16.1782C29.0992 16.4907 28.6223 16.6662 28.125 16.6662H25.9312C25.5439 17.6418 24.8255 18.4867 23.8751 19.0842C22.9248 19.6818 21.7892 20.0027 20.625 20.0027C19.4608 20.0027 18.3252 19.6818 17.3749 19.0842C16.4245 18.4867 15.7061 17.6418 15.3188 16.6662H1.875C1.37772 16.6662 0.900806 16.4907 0.549175 16.1782C0.197544 15.8657 0 15.4419 0 15C0 14.5581 0.197544 14.1343 0.549175 13.8218C0.900806 13.5093 1.37772 13.3338 1.875 13.3338H15.3188ZM9.375 23.3311C8.87772 23.3311 8.40081 23.5066 8.04918 23.8191C7.69754 24.1316 7.5 24.5554 7.5 24.9973C7.5 25.4392 7.69754 25.863 8.04918 26.1755C8.40081 26.4879 8.87772 26.6635 9.375 26.6635C9.87228 26.6635 10.3492 26.4879 10.7008 26.1755C11.0525 25.863 11.25 25.4392 11.25 24.9973C11.25 24.5554 11.0525 24.1316 10.7008 23.8191C10.3492 23.5066 9.87228 23.3311 9.375 23.3311ZM4.06875 23.3311C4.45613 22.3554 5.17451 21.5106 6.12487 20.913C7.07524 20.3155 8.21079 19.9946 9.375 19.9946C10.5392 19.9946 11.6748 20.3155 12.6251 20.913C13.5755 21.5106 14.2939 22.3554 14.6812 23.3311H28.125C28.6223 23.3311 29.0992 23.5066 29.4508 23.8191C29.8025 24.1316 30 24.5554 30 24.9973C30 25.4392 29.8025 25.863 29.4508 26.1755C29.0992 26.4879 28.6223 26.6635 28.125 26.6635H14.6812C14.2939 27.6391 13.5755 28.4839 12.6251 29.0815C11.6748 29.6791 10.5392 30 9.375 30C8.21079 30 7.07524 29.6791 6.12487 29.0815C5.17451 28.4839 4.45613 27.6391 4.06875 26.6635H1.875C1.37772 26.6635 0.900806 26.4879 0.549175 26.1755C0.197544 25.863 0 25.4392 0 24.9973C0 24.5554 0.197544 24.1316 0.549175 23.8191C0.900806 23.5066 1.37772 23.3311 1.875 23.3311H4.06875Z" fill="#70786F"/>
</svg>
