<svg width="54" height="54" viewBox="0 0 54 54" fill="none" xmlns="http://www.w3.org/2000/svg">
<rect width="54" height="54" rx="14.9457" fill="white"/>
<g clip-path="url(#clip0_1_448)">
<rect width="19.1304" height="38.2609" transform="translate(17.9348 8.36957)" fill="white"/>
<path d="M37.0652 17.9348C37.0652 19.8266 36.5042 21.6759 35.4532 23.2489C34.4021 24.8219 32.9083 26.0479 31.1605 26.7719C29.4126 27.4959 27.4894 27.6853 25.6339 27.3162C23.7784 26.9471 22.0741 26.0361 20.7364 24.6984C19.3987 23.3607 18.4877 21.6563 18.1186 19.8009C17.7495 17.9454 17.9389 16.0221 18.6629 14.2743C19.3869 12.5265 20.6129 11.0326 22.1859 9.9816C23.7588 8.93056 25.6082 8.36957 27.5 8.36957L27.5 17.9348H37.0652Z" fill="#FEDDD5"/>
<line x1="37.0652" y1="39.4565" x2="17.9348" y2="39.4565" stroke="#D7EDD5" stroke-width="14.3478"/>
</g>
<defs>
<clipPath id="clip0_1_448">
<rect width="19.1304" height="38.2609" fill="white" transform="translate(17.9348 8.36957)"/>
</clipPath>
</defs>
</svg>
