<svg width="62" height="55" viewBox="0 0 62 55" fill="none" xmlns="http://www.w3.org/2000/svg">
<path d="M11.7075 24.1569L30.9176 27.7846V49.633L11.7075 45.2634V24.1569Z" fill="#E4EDF3"/>
<path d="M50.1277 24.1569L30.9176 27.7846V49.633L50.1277 45.2634V24.1569Z" fill="#EFF4F8"/>
<path d="M16.1596 21.766L30.9176 27.7846V38.6676C27.1816 31.1707 23.1856 27.8913 11.7075 24.1569C13.7033 23.2855 14.6423 22.7754 16.1596 21.766Z" fill="#6A8EA6"/>
<path d="M45.6756 21.766L30.9176 27.7846V38.6676C34.6537 31.1707 38.6496 27.8913 50.1277 24.1569C48.1319 23.2855 47.1929 22.7754 45.6756 21.766Z" fill="#4F6A7D"/>
<path d="M5.68872 46.5C10.9653 39.1629 21.7658 37.2657 30.9999 44.5205V54.4971V54.7444C20.5206 48.0961 14.9482 45.6834 5.68872 46.5Z" fill="#D6E3ED"/>
<path d="M5.68872 46.4999C7.09032 44.6862 8.16212 43.5319 10.4706 42.1303C17.9733 43.5319 20.2818 43.8617 30.9999 49.9627V54.497V54.7443C20.5206 48.096 14.9482 45.6834 5.68872 46.4999Z" fill="#BDCCD4"/>
<path d="M56.3113 46.4994C51.0347 39.1623 40.2342 37.2651 31.0001 44.5199V54.4965V54.7438C41.4794 48.0955 47.0518 45.6829 56.3113 46.4994Z" fill="#D6E3ED"/>
<path d="M56.3113 46.4999C54.9097 44.6862 53.8379 43.5319 51.5294 42.1303C44.0267 43.5319 41.7182 43.8617 31.0001 49.9627V54.497V54.7443C41.4794 48.096 47.0518 45.6834 56.3113 46.4999Z" fill="#BDCCD4"/>
<path d="M54.7446 17.853L57.8776 16.4312V40.1186L54.7446 33.8526V17.853Z" fill="#D6E3ED"/>
<path d="M61.6702 14.725L57.8776 16.4318V40.1186L61.6702 33.1106V14.725Z" fill="#EFF4F8"/>
<path d="M-6.41488e-07 12.8287L30.9176 0.119326L30.9176 25.5381L-6.41488e-07 12.8287Z" fill="#6A8EA6"/>
<path d="M61.8352 12.8287L30.9176 0.119326L30.9176 25.5381L61.8352 12.8287Z" fill="#D6E3ED"/>
<path d="M0 12.8287L30.9176 25.5255V27.834L0 15.1372V12.8287Z" fill="#4F6A7D"/>
<path d="M61.8352 12.8287L30.9176 25.5255V27.834L61.8352 15.1372V12.8287Z" fill="#BDCCD4"/>
</svg>
