<svg width="30" height="30" viewBox="0 0 30 30" fill="none" xmlns="http://www.w3.org/2000/svg">
<path d="M27.9125 1.80418L27.9125 1.80422L28.1958 2.08745C28.1958 2.08745 28.1958 2.08746 28.1958 2.08747C29.9347 3.82639 29.9347 6.64572 28.1958 8.38462L28.5493 8.73818L28.1958 8.38463L25.3276 11.2528L9.06859 27.5119C8.92111 27.6593 8.73627 27.764 8.53382 27.8147C8.53379 27.8147 8.53375 27.8147 8.53371 27.8147L1.93011 29.4656L2.05039 29.9467L1.93011 29.4656C1.53794 29.5637 1.12299 29.4487 0.837073 29.1629C0.551246 28.877 0.436349 28.4621 0.534404 28.0699L2.18533 21.4662C2.18533 21.4662 2.18533 21.4662 2.18533 21.4662C2.23593 21.2638 2.34059 21.0789 2.48813 20.9314L18.8421 4.57742L21.6154 1.8042C23.3543 0.0652536 26.1737 0.0652876 27.9125 1.80418ZM21.615 5.05986L21.2682 5.4067L21.6083 5.76012L24.1762 8.42833L24.5296 8.79557L24.89 8.43517L26.5681 6.75697L26.2146 6.40342L26.5682 6.75696C27.4081 5.91698 27.4081 4.5551 26.5682 3.71511L26.5681 3.71506L26.2849 3.43185C26.2848 3.43184 26.2848 3.43183 26.2848 3.43181C25.4449 2.59186 24.0829 2.59187 23.243 3.43185L21.615 5.05986ZM22.5547 10.7704L22.9016 10.4235L22.5614 10.0701L19.9936 7.40188L19.6402 7.03465L19.2798 7.39504L4.43907 22.2358L4.34115 22.3337L4.30756 22.4681L3.43488 25.9588L3.23276 26.7673L4.04122 26.5652L7.53191 25.6925L7.66626 25.6589L7.76419 25.561L22.5547 10.7704Z" fill="black" fill-opacity="0.5" stroke="#70786F"/>
</svg>
