<svg width="77" height="25" viewBox="0 0 77 25" fill="none" xmlns="http://www.w3.org/2000/svg">
<rect width="77" height="25" rx="12.5" fill="#F4F4F4"/>
<path d="M13 11.4698C13 10.8816 13.6831 10.5573 14.1389 10.9291L18.4324 14.432C19.0538 14.939 19.9462 14.939 20.5676 14.432L24.8611 10.9291C25.3169 10.5573 26 10.8816 26 11.4698C26 11.6819 25.9035 11.8825 25.7378 12.0149L20.5544 16.1574C19.9378 16.6501 19.0622 16.6501 18.4456 16.1574L13.2622 12.0149C13.0965 11.8825 13 11.6819 13 11.4698Z" fill="#313232"/>
<path d="M35.764 17V10.586H34.438V9.536C34.71 9.536 34.954 9.508 35.17 9.452C35.386 9.392 35.57 9.294 35.722 9.158C35.878 9.022 35.996 8.836 36.076 8.6H37.15V17H35.764ZM42.5995 17.144C42.0155 17.144 41.5275 17.018 41.1355 16.766C40.7435 16.51 40.4335 16.172 40.2055 15.752C39.9775 15.328 39.8135 14.86 39.7135 14.348C39.6175 13.832 39.5695 13.316 39.5695 12.8C39.5695 12.404 39.5975 12.002 39.6535 11.594C39.7135 11.182 39.8115 10.79 39.9475 10.418C40.0835 10.042 40.2675 9.708 40.4995 9.416C40.7315 9.12 41.0195 8.886 41.3635 8.714C41.7115 8.542 42.1235 8.456 42.5995 8.456C43.1875 8.456 43.6755 8.582 44.0635 8.834C44.4555 9.086 44.7655 9.424 44.9935 9.848C45.2255 10.268 45.3895 10.734 45.4855 11.246C45.5855 11.758 45.6355 12.276 45.6355 12.8C45.6355 13.192 45.6055 13.594 45.5455 14.006C45.4855 14.414 45.3855 14.806 45.2455 15.182C45.1095 15.554 44.9255 15.888 44.6935 16.184C44.4615 16.48 44.1735 16.714 43.8295 16.886C43.4855 17.058 43.0755 17.144 42.5995 17.144ZM42.5995 15.836C42.9235 15.836 43.1915 15.748 43.4035 15.572C43.6155 15.392 43.7795 15.154 43.8955 14.858C44.0155 14.562 44.0995 14.236 44.1475 13.88C44.1955 13.52 44.2195 13.16 44.2195 12.8C44.2195 12.424 44.1935 12.056 44.1415 11.696C44.0935 11.332 44.0095 11.004 43.8895 10.712C43.7695 10.42 43.6035 10.188 43.3915 10.016C43.1835 9.84 42.9195 9.752 42.5995 9.752C42.2755 9.752 42.0055 9.842 41.7895 10.022C41.5775 10.202 41.4115 10.44 41.2915 10.736C41.1715 11.032 41.0855 11.36 41.0335 11.72C40.9855 12.08 40.9615 12.44 40.9615 12.8C40.9615 13.176 40.9875 13.546 41.0395 13.91C41.0915 14.27 41.1775 14.596 41.2975 14.888C41.4215 15.176 41.5895 15.406 41.8015 15.578C42.0135 15.75 42.2795 15.836 42.5995 15.836ZM50.4276 17.144C49.8436 17.144 49.3556 17.018 48.9636 16.766C48.5716 16.51 48.2616 16.172 48.0336 15.752C47.8056 15.328 47.6416 14.86 47.5416 14.348C47.4456 13.832 47.3976 13.316 47.3976 12.8C47.3976 12.404 47.4256 12.002 47.4816 11.594C47.5416 11.182 47.6396 10.79 47.7756 10.418C47.9116 10.042 48.0956 9.708 48.3276 9.416C48.5596 9.12 48.8476 8.886 49.1916 8.714C49.5396 8.542 49.9516 8.456 50.4276 8.456C51.0156 8.456 51.5036 8.582 51.8916 8.834C52.2836 9.086 52.5936 9.424 52.8216 9.848C53.0536 10.268 53.2176 10.734 53.3136 11.246C53.4136 11.758 53.4636 12.276 53.4636 12.8C53.4636 13.192 53.4336 13.594 53.3736 14.006C53.3136 14.414 53.2136 14.806 53.0736 15.182C52.9376 15.554 52.7536 15.888 52.5216 16.184C52.2896 16.48 52.0016 16.714 51.6576 16.886C51.3136 17.058 50.9036 17.144 50.4276 17.144ZM50.4276 15.836C50.7516 15.836 51.0196 15.748 51.2316 15.572C51.4436 15.392 51.6076 15.154 51.7236 14.858C51.8436 14.562 51.9276 14.236 51.9756 13.88C52.0236 13.52 52.0476 13.16 52.0476 12.8C52.0476 12.424 52.0216 12.056 51.9696 11.696C51.9216 11.332 51.8376 11.004 51.7176 10.712C51.5976 10.42 51.4316 10.188 51.2196 10.016C51.0116 9.84 50.7476 9.752 50.4276 9.752C50.1036 9.752 49.8336 9.842 49.6176 10.022C49.4056 10.202 49.2396 10.44 49.1196 10.736C48.9996 11.032 48.9136 11.36 48.8616 11.72C48.8136 12.08 48.7896 12.44 48.7896 12.8C48.7896 13.176 48.8156 13.546 48.8676 13.91C48.9196 14.27 49.0056 14.596 49.1256 14.888C49.2496 15.176 49.4176 15.406 49.6296 15.578C49.8416 15.75 50.1076 15.836 50.4276 15.836ZM55.9518 17.144L61.6758 8.456H63.0258L57.3018 17.144H55.9518ZM56.9358 12.812C56.4478 12.812 56.0578 12.702 55.7658 12.482C55.4738 12.258 55.2618 11.98 55.1298 11.648C54.9978 11.312 54.9318 10.974 54.9318 10.634C54.9318 10.398 54.9678 10.154 55.0398 9.902C55.1118 9.65 55.2258 9.414 55.3818 9.194C55.5378 8.974 55.7438 8.796 55.9998 8.66C56.2558 8.524 56.5678 8.456 56.9358 8.456C57.2958 8.456 57.6018 8.52 57.8538 8.648C58.1098 8.776 58.3158 8.948 58.4718 9.164C58.6278 9.376 58.7418 9.61 58.8138 9.866C58.8858 10.122 58.9218 10.378 58.9218 10.634C58.9218 10.87 58.8878 11.114 58.8198 11.366C58.7518 11.618 58.6398 11.854 58.4838 12.074C58.3318 12.29 58.1278 12.468 57.8717 12.608C57.6198 12.744 57.3078 12.812 56.9358 12.812ZM56.9358 11.696C57.1198 11.696 57.2718 11.646 57.3918 11.546C57.5118 11.446 57.6018 11.316 57.6618 11.156C57.7218 10.996 57.7518 10.822 57.7518 10.634C57.7518 10.426 57.7218 10.242 57.6618 10.082C57.6018 9.922 57.5098 9.798 57.3858 9.71C57.2658 9.618 57.1158 9.572 56.9358 9.572C56.7438 9.572 56.5878 9.622 56.4678 9.722C56.3478 9.818 56.2578 9.946 56.1978 10.106C56.1418 10.266 56.1138 10.442 56.1138 10.634C56.1138 10.842 56.1438 11.026 56.2038 11.186C56.2638 11.342 56.3538 11.466 56.4738 11.558C56.5938 11.65 56.7478 11.696 56.9358 11.696ZM62.0478 17.144C61.5598 17.144 61.1698 17.034 60.8778 16.814C60.5898 16.594 60.3798 16.316 60.2478 15.98C60.1198 15.644 60.0558 15.306 60.0558 14.966C60.0558 14.73 60.0918 14.486 60.1638 14.234C60.2358 13.982 60.3478 13.746 60.4998 13.526C60.6558 13.306 60.8598 13.128 61.1118 12.992C61.3678 12.856 61.6798 12.788 62.0478 12.788C62.4118 12.788 62.7198 12.852 62.9718 12.98C63.2278 13.108 63.4338 13.278 63.5898 13.49C63.7498 13.702 63.8658 13.936 63.9378 14.192C64.0098 14.448 64.0458 14.706 64.0458 14.966C64.0458 15.206 64.0098 15.454 63.9378 15.71C63.8698 15.962 63.7578 16.198 63.6018 16.418C63.4498 16.634 63.2458 16.81 62.9898 16.946C62.7338 17.078 62.4198 17.144 62.0478 17.144ZM62.0478 16.028C62.2358 16.028 62.3898 15.978 62.5098 15.878C62.6298 15.778 62.7178 15.648 62.7738 15.488C62.8338 15.328 62.8638 15.154 62.8638 14.966C62.8638 14.758 62.8338 14.574 62.7738 14.414C62.7138 14.254 62.6238 14.13 62.5038 14.042C62.3838 13.95 62.2318 13.904 62.0478 13.904C61.8598 13.904 61.7058 13.954 61.5858 14.054C61.4658 14.15 61.3758 14.278 61.3158 14.438C61.2598 14.598 61.2318 14.774 61.2318 14.966C61.2318 15.17 61.2598 15.352 61.3158 15.512C61.3758 15.672 61.4658 15.798 61.5858 15.89C61.7058 15.982 61.8598 16.028 62.0478 16.028Z" fill="black" fill-opacity="0.8"/>
</svg>
