<svg width="11" height="12" viewBox="0 0 11 12" fill="none" xmlns="http://www.w3.org/2000/svg">
<path fill-rule="evenodd" clip-rule="evenodd" d="M6.51586 0.234312C6.82268 -0.078104 7.3202 -0.078104 7.62702 0.234312L10.7699 3.43431C11.0767 3.74674 11.0767 4.25326 10.7699 4.56569L7.62702 7.76568C7.3202 8.07808 6.82268 8.07808 6.51586 7.76568C6.20904 7.45328 6.20904 6.94672 6.51586 6.63432L8.31743 4.8H4.32144C2.80265 4.8 1.57143 6.0536 1.57143 7.6C1.57143 9.1464 2.80265 10.4 4.32144 10.4H6.28573C6.71968 10.4 7.07144 10.7582 7.07144 11.2C7.07144 11.6418 6.71968 12 6.28573 12H4.32144C1.93477 12 0 10.0301 0 7.6C0 5.16992 1.93477 3.2 4.32144 3.2H8.31743L6.51586 1.36569C6.20904 1.05326 6.20904 0.546736 6.51586 0.234312Z" fill="black" fill-opacity="0.8"/>
</svg>
