<svg width="20" height="20" viewBox="0 0 20 20" fill="none" xmlns="http://www.w3.org/2000/svg">
<path d="M6.25 2.22434C5.91848 2.22434 5.60054 2.34137 5.36612 2.54969C5.1317 2.758 5 3.04054 5 3.33515C5 3.62975 5.1317 3.91229 5.36612 4.12061C5.60054 4.32892 5.91848 4.44596 6.25 4.44596C6.58152 4.44596 6.89946 4.32892 7.13388 4.12061C7.3683 3.91229 7.5 3.62975 7.5 3.33515C7.5 3.04054 7.3683 2.758 7.13388 2.54969C6.89946 2.34137 6.58152 2.22434 6.25 2.22434ZM2.7125 2.22434C2.97075 1.57392 3.44967 1.01071 4.08325 0.612322C4.71683 0.213937 5.47386 0 6.25 0C7.02614 0 7.78317 0.213937 8.41675 0.612322C9.05033 1.01071 9.52925 1.57392 9.7875 2.22434H18.75C19.0815 2.22434 19.3995 2.34137 19.6339 2.54969C19.8683 2.758 20 3.04054 20 3.33515C20 3.62975 19.8683 3.91229 19.6339 4.12061C19.3995 4.32892 19.0815 4.44596 18.75 4.44596H9.7875C9.52925 5.09637 9.05033 5.65959 8.41675 6.05797C7.78317 6.45636 7.02614 6.6703 6.25 6.6703C5.47386 6.6703 4.71683 6.45636 4.08325 6.05797C3.44967 5.65959 2.97075 5.09637 2.7125 4.44596H1.25C0.918479 4.44596 0.600537 4.32892 0.366117 4.12061C0.131696 3.91229 0 3.62975 0 3.33515C0 3.04054 0.131696 2.758 0.366117 2.54969C0.600537 2.34137 0.918479 2.22434 1.25 2.22434H2.7125ZM13.75 8.88919C13.4185 8.88919 13.1005 9.00622 12.8661 9.21454C12.6317 9.42286 12.5 9.7054 12.5 10C12.5 10.2946 12.6317 10.5771 12.8661 10.7855C13.1005 10.9938 13.4185 11.1108 13.75 11.1108C14.0815 11.1108 14.3995 10.9938 14.6339 10.7855C14.8683 10.5771 15 10.2946 15 10C15 9.7054 14.8683 9.42286 14.6339 9.21454C14.3995 9.00622 14.0815 8.88919 13.75 8.88919ZM10.2125 8.88919C10.4708 8.23878 10.9497 7.67556 11.5832 7.27717C12.2168 6.87879 12.9739 6.66485 13.75 6.66485C14.5261 6.66485 15.2832 6.87879 15.9168 7.27717C16.5503 7.67556 17.0292 8.23878 17.2875 8.88919H18.75C19.0815 8.88919 19.3995 9.00622 19.6339 9.21454C19.8683 9.42286 20 9.7054 20 10C20 10.2946 19.8683 10.5771 19.6339 10.7855C19.3995 10.9938 19.0815 11.1108 18.75 11.1108H17.2875C17.0292 11.7612 16.5503 12.3244 15.9168 12.7228C15.2832 13.1212 14.5261 13.3351 13.75 13.3351C12.9739 13.3351 12.2168 13.1212 11.5832 12.7228C10.9497 12.3244 10.4708 11.7612 10.2125 11.1108H1.25C0.918479 11.1108 0.600537 10.9938 0.366117 10.7855C0.131696 10.5771 0 10.2946 0 10C0 9.7054 0.131696 9.42286 0.366117 9.21454C0.600537 9.00622 0.918479 8.88919 1.25 8.88919H10.2125ZM6.25 15.554C5.91848 15.554 5.60054 15.6711 5.36612 15.8794C5.1317 16.0877 5 16.3702 5 16.6649C5 16.9595 5.1317 17.242 5.36612 17.4503C5.60054 17.6586 5.91848 17.7757 6.25 17.7757C6.58152 17.7757 6.89946 17.6586 7.13388 17.4503C7.3683 17.242 7.5 16.9595 7.5 16.6649C7.5 16.3702 7.3683 16.0877 7.13388 15.8794C6.89946 15.6711 6.58152 15.554 6.25 15.554ZM2.7125 15.554C2.97075 14.9036 3.44967 14.3404 4.08325 13.942C4.71683 13.5436 5.47386 13.3297 6.25 13.3297C7.02614 13.3297 7.78317 13.5436 8.41675 13.942C9.05033 14.3404 9.52925 14.9036 9.7875 15.554H18.75C19.0815 15.554 19.3995 15.6711 19.6339 15.8794C19.8683 16.0877 20 16.3702 20 16.6649C20 16.9595 19.8683 17.242 19.6339 17.4503C19.3995 17.6586 19.0815 17.7757 18.75 17.7757H9.7875C9.52925 18.4261 9.05033 18.9893 8.41675 19.3877C7.78317 19.7861 7.02614 20 6.25 20C5.47386 20 4.71683 19.7861 4.08325 19.3877C3.44967 18.9893 2.97075 18.4261 2.7125 17.7757H1.25C0.918479 17.7757 0.600537 17.6586 0.366117 17.4503C0.131696 17.242 0 16.9595 0 16.6649C0 16.3702 0.131696 16.0877 0.366117 15.8794C0.600537 15.6711 0.918479 15.554 1.25 15.554H2.7125Z" fill="#70786F"/>
</svg>
