<svg width="11" height="12" viewBox="0 0 11 12" fill="none" xmlns="http://www.w3.org/2000/svg">
<path fill-rule="evenodd" clip-rule="evenodd" d="M4.48415 0.234312C4.79097 0.546736 4.79097 1.05326 4.48415 1.36569L2.68259 3.2H6.67857C9.06526 3.2 11 5.16992 11 7.6C11 10.0301 9.06526 12 6.67857 12H4.71429C4.28034 12 3.92857 11.6418 3.92857 11.2C3.92857 10.7582 4.28034 10.4 4.71429 10.4H6.67857C8.19736 10.4 9.42857 9.1464 9.42857 7.6C9.42857 6.0536 8.19736 4.8 6.67857 4.8H2.68259L4.48415 6.63432C4.79097 6.94672 4.79097 7.45328 4.48415 7.76568C4.17733 8.07808 3.67983 8.07808 3.37298 7.76568L0.230128 4.56569C-0.0767093 4.25326 -0.0767093 3.74674 0.230128 3.43431L3.37298 0.234312C3.67983 -0.078104 4.17733 -0.078104 4.48415 0.234312Z" fill="black" fill-opacity="0.8"/>
</svg>
